<svg xmlns="http://www.w3.org/2000/svg" viewBox="0 0 64 64">
  <defs>
    <marker id="ah" markerWidth="5" markerHeight="4" refX="2" refY="2" orient="auto" markerUnits="userSpaceOnUse">
      <path d="M0,0 L5,2 L0,4 z" fill="#475569"/>
    </marker>
  </defs>
  <rect width="64" height="64" rx="12" fill="#ffffff"/>
  <!-- isometric axes, origin at exact icon center (32,32); refX<markerWidth pushes the arrow apex past the line endpoint -->
  <g stroke="#475569" stroke-width="1.25" stroke-linecap="butt" fill="none">
    <line x1="32" y1="32" x2="10" y2="45" marker-end="url(#ah)"/>
    <line x1="32" y1="32" x2="54" y2="45" marker-end="url(#ah)"/>
    <line x1="32" y1="32" x2="32" y2="10" marker-end="url(#ah)"/>
  </g>
  <!-- sine in xz-plane, 2 periods along x-axis -->
  <polyline stroke="#2563eb" stroke-width="3" stroke-linecap="round" stroke-linejoin="round" fill="none"
    points="32,32 32.9,30 33.7,28.7 34.6,28.5 35.5,29.7 36.3,32 37.2,35 38.1,38 38.9,40.3 39.8,41.5 40.7,41.3 41.5,40 42.4,38 43.3,36 44.1,34.7 45,34.5 45.9,35.7 46.7,38 47.6,41 48.5,44 49.3,46.3 50.2,47.5 51.1,47.3 51.9,46 52.8,44"/>
  <!-- cosine in yz-plane, 2 periods along y-axis -->
  <polyline stroke="#dc2626" stroke-width="3" stroke-linecap="round" stroke-linejoin="round" fill="none"
    points="32,27 31.1,28.2 30.3,30.5 29.4,33.5 28.5,36.5 27.7,38.8 26.8,40 25.9,39.8 25.1,38.5 24.2,36.5 23.3,34.5 22.5,33.2 21.6,33 20.7,34.2 19.9,36.5 19,39.5 18.2,42.5 17.3,44.8 16.4,46 15.6,45.8 14.7,44.5 13.8,42.5 13,40.5 12.1,39.2 11.2,39"/>
  <!-- origin marker at exact icon center -->
  <circle cx="32" cy="32" r="2" fill="#0f172a"/>
</svg>
